<?xml version="1.0" encoding="UTF-8" standalone="no"?><svg xmlns="http://www.w3.org/2000/svg" xmlns:xlink="http://www.w3.org/1999/xlink" contentScriptType="application/ecmascript" contentStyleType="text/css" height="1053px" preserveAspectRatio="none" style="width:1507px;height:1053px;" version="1.1" viewBox="0 0 1507 1053" width="1507px" zoomAndPan="magnify"><defs><filter height="300%" id="f18pkw0mpw3vhj" width="300%" x="-1" y="-1"><feGaussianBlur result="blurOut" stdDeviation="2.0"/><feColorMatrix in="blurOut" result="blurOut2" type="matrix" values="0 0 0 0 0 0 0 0 0 0 0 0 0 0 0 0 0 0 .4 0"/><feOffset dx="4.0" dy="4.0" in="blurOut2" result="blurOut3"/><feBlend in="SourceGraphic" in2="blurOut3" mode="normal"/></filter></defs><g><!--MD5=[9a4151bb0c9bc144e397f2ea008cdfeb]
cluster Parsers--><polygon fill="#FFFFFF" filter="url(#f18pkw0mpw3vhj)" points="372,24,439,24,446,46.2969,762,46.2969,762,231,372,231,372,24" style="stroke: #000000; stroke-width: 1.5;"/><line style="stroke: #000000; stroke-width: 1.5;" x1="372" x2="446" y1="46.2969" y2="46.2969"/><text fill="#000000" font-family="sans-serif" font-size="14" font-weight="bold" lengthAdjust="spacingAndGlyphs" textLength="61" x="376" y="38.9951">Parsers</text><!--MD5=[027ebfd53c01aea08f474edbf35d0797]
cluster Models--><polygon fill="#FFFFFF" filter="url(#f18pkw0mpw3vhj)" points="786,24,848,24,855,46.2969,1053,46.2969,1053,231,786,231,786,24" style="stroke: #000000; stroke-width: 1.5;"/><line style="stroke: #000000; stroke-width: 1.5;" x1="786" x2="855" y1="46.2969" y2="46.2969"/><text fill="#000000" font-family="sans-serif" font-size="14" font-weight="bold" lengthAdjust="spacingAndGlyphs" textLength="56" x="790" y="38.9951">Models</text><!--MD5=[cdfd548b3455e70392372b1f27091970]
cluster Services--><polygon fill="#FFFFFF" filter="url(#f18pkw0mpw3vhj)" points="22,363,96,363,103,385.2969,156,385.2969,156,570,22,570,22,363" style="stroke: #000000; stroke-width: 1.5;"/><line style="stroke: #000000; stroke-width: 1.5;" x1="22" x2="103" y1="385.2969" y2="385.2969"/><text fill="#000000" font-family="sans-serif" font-size="14" font-weight="bold" lengthAdjust="spacingAndGlyphs" textLength="68" x="26" y="377.9951">Services</text><!--MD5=[13deee7bba1140ca9d8aad9bd20b3c41]
cluster Factories--><polygon fill="#FFFFFF" filter="url(#f18pkw0mpw3vhj)" points="180,363,259,363,266,385.2969,334,385.2969,334,570,180,570,180,363" style="stroke: #000000; stroke-width: 1.5;"/><line style="stroke: #000000; stroke-width: 1.5;" x1="180" x2="266" y1="385.2969" y2="385.2969"/><text fill="#000000" font-family="sans-serif" font-size="14" font-weight="bold" lengthAdjust="spacingAndGlyphs" textLength="73" x="184" y="377.9951">Factories</text><!--MD5=[0f1402dd4ba50f92b20010225714ea74]
cluster Analysis--><polygon fill="#FFFFFF" filter="url(#f18pkw0mpw3vhj)" points="1077,24,1148,24,1155,46.2969,1485,46.2969,1485,462,1077,462,1077,24" style="stroke: #000000; stroke-width: 1.5;"/><line style="stroke: #000000; stroke-width: 1.5;" x1="1077" x2="1155" y1="46.2969" y2="46.2969"/><text fill="#000000" font-family="sans-serif" font-size="14" font-weight="bold" lengthAdjust="spacingAndGlyphs" textLength="65" x="1081" y="38.9951">Analysis</text><!--MD5=[d7f27c4a3b2989ce10a83a226b5958d9]
cluster Decorators--><polygon fill="#FFFFFF" filter="url(#f18pkw0mpw3vhj)" points="124,834,218,834,225,856.2969,805,856.2969,805,1041,124,1041,124,834" style="stroke: #000000; stroke-width: 1.5;"/><line style="stroke: #000000; stroke-width: 1.5;" x1="124" x2="225" y1="856.2969" y2="856.2969"/><text fill="#000000" font-family="sans-serif" font-size="14" font-weight="bold" lengthAdjust="spacingAndGlyphs" textLength="88" x="128" y="848.9951">Decorators</text><!--MD5=[92e141b22d380a5f0541313401271b80]
cluster Reports--><polygon fill="#FFFFFF" filter="url(#f18pkw0mpw3vhj)" points="358,363,426,363,433,385.2969,578,385.2969,578,810,358,810,358,363" style="stroke: #000000; stroke-width: 1.5;"/><line style="stroke: #000000; stroke-width: 1.5;" x1="358" x2="433" y1="385.2969" y2="385.2969"/><text fill="#000000" font-family="sans-serif" font-size="14" font-weight="bold" lengthAdjust="spacingAndGlyphs" textLength="62" x="362" y="377.9951">Reports</text><!--MD5=[2c6141c233ff5fd4f36c729c6a46eb32]
cluster Builders--><polygon fill="#FFFFFF" filter="url(#f18pkw0mpw3vhj)" points="393,687,463,687,470,709.2969,543,709.2969,543,786,393,786,393,687" style="stroke: #000000; stroke-width: 1.5;"/><line style="stroke: #000000; stroke-width: 1.5;" x1="393" x2="470" y1="709.2969" y2="709.2969"/><text fill="#000000" font-family="sans-serif" font-size="14" font-weight="bold" lengthAdjust="spacingAndGlyphs" textLength="64" x="397" y="701.9951">Builders</text><!--MD5=[d554ca5e465a93334ea2de02ad32dc2d]
cluster Facades--><polygon fill="#FFFFFF" filter="url(#f18pkw0mpw3vhj)" points="166,132,237,132,244,154.2969,348,154.2969,348,339,166,339,166,132" style="stroke: #000000; stroke-width: 1.5;"/><line style="stroke: #000000; stroke-width: 1.5;" x1="166" x2="244" y1="154.2969" y2="154.2969"/><text fill="#000000" font-family="sans-serif" font-size="14" font-weight="bold" lengthAdjust="spacingAndGlyphs" textLength="65" x="170" y="146.9951">Facades</text><!--MD5=[1dd3a9bbe3aa7a475f0be0711d5d3abd]
class ITestResultParser--><rect fill="#FEFECE" filter="url(#f18pkw0mpw3vhj)" height="48" id="ITestResultParser" style="stroke: #A80036; stroke-width: 1.5;" width="139" x="497.5" y="59"/><ellipse cx="512.5" cy="75" fill="#B4A7E5" rx="11" ry="11" style="stroke: #A80036; stroke-width: 1.0;"/><path d="M508.4219,70.7656 L508.4219,68.6094 L515.8125,68.6094 L515.8125,70.7656 L513.3438,70.7656 L513.3438,78.8438 L515.8125,78.8438 L515.8125,81 L508.4219,81 L508.4219,78.8438 L510.8906,78.8438 L510.8906,70.7656 L508.4219,70.7656 Z "/><text fill="#000000" font-family="sans-serif" font-size="12" font-style="italic" lengthAdjust="spacingAndGlyphs" textLength="107" x="526.5" y="79.1543">ITestResultParser</text><line style="stroke: #A80036; stroke-width: 1.5;" x1="498.5" x2="635.5" y1="91" y2="91"/><line style="stroke: #A80036; stroke-width: 1.5;" x1="498.5" x2="635.5" y1="99" y2="99"/><!--MD5=[3b1fdba02bc68ff738b726d5a9d3bcee]
class CsvParser--><rect fill="#FEFECE" filter="url(#f18pkw0mpw3vhj)" height="48" id="CsvParser" style="stroke: #A80036; stroke-width: 1.5;" width="94" x="388" y="167"/><ellipse cx="403" cy="183" fill="#ADD1B2" rx="11" ry="11" style="stroke: #A80036; stroke-width: 1.0;"/><path d="M405.9688,188.6406 Q405.3906,188.9375 404.75,189.0781 Q404.1094,189.2344 403.4063,189.2344 Q400.9063,189.2344 399.5781,187.5938 Q398.2656,185.9375 398.2656,182.8125 Q398.2656,179.6875 399.5781,178.0313 Q400.9063,176.375 403.4063,176.375 Q404.1094,176.375 404.75,176.5313 Q405.4063,176.6875 405.9688,176.9844 L405.9688,179.7031 Q405.3438,179.125 404.75,178.8594 Q404.1563,178.5781 403.5313,178.5781 Q402.1875,178.5781 401.5,179.6563 Q400.8125,180.7188 400.8125,182.8125 Q400.8125,184.9063 401.5,185.9844 Q402.1875,187.0469 403.5313,187.0469 Q404.1563,187.0469 404.75,186.7813 Q405.3438,186.5 405.9688,185.9219 L405.9688,188.6406 Z "/><text fill="#000000" font-family="sans-serif" font-size="12" lengthAdjust="spacingAndGlyphs" textLength="62" x="417" y="187.1543">CsvParser</text><line style="stroke: #A80036; stroke-width: 1.5;" x1="389" x2="481" y1="199" y2="199"/><line style="stroke: #A80036; stroke-width: 1.5;" x1="389" x2="481" y1="207" y2="207"/><!--MD5=[162ff44b580e372d14088e0d26d93db2]
class JsonParser--><rect fill="#FEFECE" filter="url(#f18pkw0mpw3vhj)" height="48" id="JsonParser" style="stroke: #A80036; stroke-width: 1.5;" width="99" x="517.5" y="167"/><ellipse cx="532.5" cy="183" fill="#ADD1B2" rx="11" ry="11" style="stroke: #A80036; stroke-width: 1.0;"/><path d="M535.4688,188.6406 Q534.8906,188.9375 534.25,189.0781 Q533.6094,189.2344 532.9063,189.2344 Q530.4063,189.2344 529.0781,187.5938 Q527.7656,185.9375 527.7656,182.8125 Q527.7656,179.6875 529.0781,178.0313 Q530.4063,176.375 532.9063,176.375 Q533.6094,176.375 534.25,176.5313 Q534.9063,176.6875 535.4688,176.9844 L535.4688,179.7031 Q534.8438,179.125 534.25,178.8594 Q533.6563,178.5781 533.0313,178.5781 Q531.6875,178.5781 531,179.6563 Q530.3125,180.7188 530.3125,182.8125 Q530.3125,184.9063 531,185.9844 Q531.6875,187.0469 533.0313,187.0469 Q533.6563,187.0469 534.25,186.7813 Q534.8438,186.5 535.4688,185.9219 L535.4688,188.6406 Z "/><text fill="#000000" font-family="sans-serif" font-size="12" lengthAdjust="spacingAndGlyphs" textLength="67" x="546.5" y="187.1543">JsonParser</text><line style="stroke: #A80036; stroke-width: 1.5;" x1="518.5" x2="615.5" y1="199" y2="199"/><line style="stroke: #A80036; stroke-width: 1.5;" x1="518.5" x2="615.5" y1="207" y2="207"/><!--MD5=[8c9878e76de7bdab6285e192341c277d]
class XmlParser--><rect fill="#FEFECE" filter="url(#f18pkw0mpw3vhj)" height="48" id="XmlParser" style="stroke: #A80036; stroke-width: 1.5;" width="94" x="652" y="167"/><ellipse cx="667" cy="183" fill="#ADD1B2" rx="11" ry="11" style="stroke: #A80036; stroke-width: 1.0;"/><path d="M669.9688,188.6406 Q669.3906,188.9375 668.75,189.0781 Q668.1094,189.2344 667.4063,189.2344 Q664.9063,189.2344 663.5781,187.5938 Q662.2656,185.9375 662.2656,182.8125 Q662.2656,179.6875 663.5781,178.0313 Q664.9063,176.375 667.4063,176.375 Q668.1094,176.375 668.75,176.5313 Q669.4063,176.6875 669.9688,176.9844 L669.9688,179.7031 Q669.3438,179.125 668.75,178.8594 Q668.1563,178.5781 667.5313,178.5781 Q666.1875,178.5781 665.5,179.6563 Q664.8125,180.7188 664.8125,182.8125 Q664.8125,184.9063 665.5,185.9844 Q666.1875,187.0469 667.5313,187.0469 Q668.1563,187.0469 668.75,186.7813 Q669.3438,186.5 669.9688,185.9219 L669.9688,188.6406 Z "/><text fill="#000000" font-family="sans-serif" font-size="12" lengthAdjust="spacingAndGlyphs" textLength="62" x="681" y="187.1543">XmlParser</text><line style="stroke: #A80036; stroke-width: 1.5;" x1="653" x2="745" y1="199" y2="199"/><line style="stroke: #A80036; stroke-width: 1.5;" x1="653" x2="745" y1="207" y2="207"/><!--MD5=[86adbe8431f0a5234cd4649a7bb98ad5]
class ITestResult--><rect fill="#FEFECE" filter="url(#f18pkw0mpw3vhj)" height="48" id="ITestResult" style="stroke: #A80036; stroke-width: 1.5;" width="100" x="937" y="59"/><ellipse cx="952" cy="75" fill="#B4A7E5" rx="11" ry="11" style="stroke: #A80036; stroke-width: 1.0;"/><path d="M947.9219,70.7656 L947.9219,68.6094 L955.3125,68.6094 L955.3125,70.7656 L952.8438,70.7656 L952.8438,78.8438 L955.3125,78.8438 L955.3125,81 L947.9219,81 L947.9219,78.8438 L950.3906,78.8438 L950.3906,70.7656 L947.9219,70.7656 Z "/><text fill="#000000" font-family="sans-serif" font-size="12" font-style="italic" lengthAdjust="spacingAndGlyphs" textLength="68" x="966" y="79.1543">ITestResult</text><line style="stroke: #A80036; stroke-width: 1.5;" x1="938" x2="1036" y1="91" y2="91"/><line style="stroke: #A80036; stroke-width: 1.5;" x1="938" x2="1036" y1="99" y2="99"/><!--MD5=[e27cb01a39563223b22d42504ec96d07]
class TestResult--><rect fill="#FEFECE" filter="url(#f18pkw0mpw3vhj)" height="48" id="TestResult" style="stroke: #A80036; stroke-width: 1.5;" width="98" x="938" y="167"/><ellipse cx="953" cy="183" fill="#ADD1B2" rx="11" ry="11" style="stroke: #A80036; stroke-width: 1.0;"/><path d="M955.9688,188.6406 Q955.3906,188.9375 954.75,189.0781 Q954.1094,189.2344 953.4063,189.2344 Q950.9063,189.2344 949.5781,187.5938 Q948.2656,185.9375 948.2656,182.8125 Q948.2656,179.6875 949.5781,178.0313 Q950.9063,176.375 953.4063,176.375 Q954.1094,176.375 954.75,176.5313 Q955.4063,176.6875 955.9688,176.9844 L955.9688,179.7031 Q955.3438,179.125 954.75,178.8594 Q954.1563,178.5781 953.5313,178.5781 Q952.1875,178.5781 951.5,179.6563 Q950.8125,180.7188 950.8125,182.8125 Q950.8125,184.9063 951.5,185.9844 Q952.1875,187.0469 953.5313,187.0469 Q954.1563,187.0469 954.75,186.7813 Q955.3438,186.5 955.9688,185.9219 L955.9688,188.6406 Z "/><text fill="#000000" font-family="sans-serif" font-size="12" lengthAdjust="spacingAndGlyphs" textLength="66" x="967" y="187.1543">TestResult</text><line style="stroke: #A80036; stroke-width: 1.5;" x1="939" x2="1035" y1="199" y2="199"/><line style="stroke: #A80036; stroke-width: 1.5;" x1="939" x2="1035" y1="207" y2="207"/><!--MD5=[689ef5704a63558a89a9857a1c7cd62a]
class TestStatus--><rect fill="#FEFECE" filter="url(#f18pkw0mpw3vhj)" height="48" id="TestStatus" style="stroke: #A80036; stroke-width: 1.5;" width="100" x="802" y="59"/><ellipse cx="817" cy="75" fill="#EB937F" rx="11" ry="11" style="stroke: #A80036; stroke-width: 1.0;"/><path d="M821.1094,81 L813.3906,81 L813.3906,68.6094 L821.1094,68.6094 L821.1094,70.7656 L815.8438,70.7656 L815.8438,73.4375 L820.6094,73.4375 L820.6094,75.5938 L815.8438,75.5938 L815.8438,78.8438 L821.1094,78.8438 L821.1094,81 Z "/><text fill="#000000" font-family="sans-serif" font-size="12" lengthAdjust="spacingAndGlyphs" textLength="68" x="831" y="79.1543">TestStatus</text><line style="stroke: #A80036; stroke-width: 1.5;" x1="803" x2="901" y1="91" y2="91"/><line style="stroke: #A80036; stroke-width: 1.5;" x1="803" x2="901" y1="99" y2="99"/><!--MD5=[b4e6db801820cdee713d0d4c735bfddb]
class IFileReader--><rect fill="#FEFECE" filter="url(#f18pkw0mpw3vhj)" height="48" id="IFileReader" style="stroke: #A80036; stroke-width: 1.5;" width="102" x="38" y="398"/><ellipse cx="53" cy="414" fill="#B4A7E5" rx="11" ry="11" style="stroke: #A80036; stroke-width: 1.0;"/><path d="M48.9219,409.7656 L48.9219,407.6094 L56.3125,407.6094 L56.3125,409.7656 L53.8438,409.7656 L53.8438,417.8438 L56.3125,417.8438 L56.3125,420 L48.9219,420 L48.9219,417.8438 L51.3906,417.8438 L51.3906,409.7656 L48.9219,409.7656 Z "/><text fill="#000000" font-family="sans-serif" font-size="12" font-style="italic" lengthAdjust="spacingAndGlyphs" textLength="70" x="67" y="418.1543">IFileReader</text><line style="stroke: #A80036; stroke-width: 1.5;" x1="39" x2="139" y1="430" y2="430"/><line style="stroke: #A80036; stroke-width: 1.5;" x1="39" x2="139" y1="438" y2="438"/><!--MD5=[d80f71a20ad5bc844207fdd4e8cd5494]
class FileReader--><rect fill="#FEFECE" filter="url(#f18pkw0mpw3vhj)" height="48" id="FileReader" style="stroke: #A80036; stroke-width: 1.5;" width="98" x="40" y="506"/><ellipse cx="55" cy="522" fill="#ADD1B2" rx="11" ry="11" style="stroke: #A80036; stroke-width: 1.0;"/><path d="M57.9688,527.6406 Q57.3906,527.9375 56.75,528.0781 Q56.1094,528.2344 55.4063,528.2344 Q52.9063,528.2344 51.5781,526.5938 Q50.2656,524.9375 50.2656,521.8125 Q50.2656,518.6875 51.5781,517.0313 Q52.9063,515.375 55.4063,515.375 Q56.1094,515.375 56.75,515.5313 Q57.4063,515.6875 57.9688,515.9844 L57.9688,518.7031 Q57.3438,518.125 56.75,517.8594 Q56.1563,517.5781 55.5313,517.5781 Q54.1875,517.5781 53.5,518.6563 Q52.8125,519.7188 52.8125,521.8125 Q52.8125,523.9063 53.5,524.9844 Q54.1875,526.0469 55.5313,526.0469 Q56.1563,526.0469 56.75,525.7813 Q57.3438,525.5 57.9688,524.9219 L57.9688,527.6406 Z "/><text fill="#000000" font-family="sans-serif" font-size="12" lengthAdjust="spacingAndGlyphs" textLength="66" x="69" y="526.1543">FileReader</text><line style="stroke: #A80036; stroke-width: 1.5;" x1="41" x2="137" y1="538" y2="538"/><line style="stroke: #A80036; stroke-width: 1.5;" x1="41" x2="137" y1="546" y2="546"/><!--MD5=[0c8cbd580ed35f442d2c7df1a7308ba3]
class IParserFactory--><rect fill="#FEFECE" filter="url(#f18pkw0mpw3vhj)" height="48" id="IParserFactory" style="stroke: #A80036; stroke-width: 1.5;" width="122" x="196" y="398"/><ellipse cx="211" cy="414" fill="#B4A7E5" rx="11" ry="11" style="stroke: #A80036; stroke-width: 1.0;"/><path d="M206.9219,409.7656 L206.9219,407.6094 L214.3125,407.6094 L214.3125,409.7656 L211.8438,409.7656 L211.8438,417.8438 L214.3125,417.8438 L214.3125,420 L206.9219,420 L206.9219,417.8438 L209.3906,417.8438 L209.3906,409.7656 L206.9219,409.7656 Z "/><text fill="#000000" font-family="sans-serif" font-size="12" font-style="italic" lengthAdjust="spacingAndGlyphs" textLength="90" x="225" y="418.1543">IParserFactory</text><line style="stroke: #A80036; stroke-width: 1.5;" x1="197" x2="317" y1="430" y2="430"/><line style="stroke: #A80036; stroke-width: 1.5;" x1="197" x2="317" y1="438" y2="438"/><!--MD5=[0478eee3cab6329f179af95997d0a1c7]
class ParserFactory--><rect fill="#FEFECE" filter="url(#f18pkw0mpw3vhj)" height="48" id="ParserFactory" style="stroke: #A80036; stroke-width: 1.5;" width="119" x="197.5" y="506"/><ellipse cx="212.5" cy="522" fill="#ADD1B2" rx="11" ry="11" style="stroke: #A80036; stroke-width: 1.0;"/><path d="M215.4688,527.6406 Q214.8906,527.9375 214.25,528.0781 Q213.6094,528.2344 212.9063,528.2344 Q210.4063,528.2344 209.0781,526.5938 Q207.7656,524.9375 207.7656,521.8125 Q207.7656,518.6875 209.0781,517.0313 Q210.4063,515.375 212.9063,515.375 Q213.6094,515.375 214.25,515.5313 Q214.9063,515.6875 215.4688,515.9844 L215.4688,518.7031 Q214.8438,518.125 214.25,517.8594 Q213.6563,517.5781 213.0313,517.5781 Q211.6875,517.5781 211,518.6563 Q210.3125,519.7188 210.3125,521.8125 Q210.3125,523.9063 211,524.9844 Q211.6875,526.0469 213.0313,526.0469 Q213.6563,526.0469 214.25,525.7813 Q214.8438,525.5 215.4688,524.9219 L215.4688,527.6406 Z "/><text fill="#000000" font-family="sans-serif" font-size="12" lengthAdjust="spacingAndGlyphs" textLength="87" x="226.5" y="526.1543">ParserFactory</text><line style="stroke: #A80036; stroke-width: 1.5;" x1="198.5" x2="315.5" y1="538" y2="538"/><line style="stroke: #A80036; stroke-width: 1.5;" x1="198.5" x2="315.5" y1="546" y2="546"/><!--MD5=[b3740274e5a721158c61ad7eed9728f4]
class ITestAnalyzer--><rect fill="#FEFECE" filter="url(#f18pkw0mpw3vhj)" height="48" id="ITestAnalyzer" style="stroke: #A80036; stroke-width: 1.5;" width="115" x="1226.5" y="59"/><ellipse cx="1241.5" cy="75" fill="#B4A7E5" rx="11" ry="11" style="stroke: #A80036; stroke-width: 1.0;"/><path d="M1237.4219,70.7656 L1237.4219,68.6094 L1244.8125,68.6094 L1244.8125,70.7656 L1242.3438,70.7656 L1242.3438,78.8438 L1244.8125,78.8438 L1244.8125,81 L1237.4219,81 L1237.4219,78.8438 L1239.8906,78.8438 L1239.8906,70.7656 L1237.4219,70.7656 Z "/><text fill="#000000" font-family="sans-serif" font-size="12" font-style="italic" lengthAdjust="spacingAndGlyphs" textLength="83" x="1255.5" y="79.1543">ITestAnalyzer</text><line style="stroke: #A80036; stroke-width: 1.5;" x1="1227.5" x2="1340.5" y1="91" y2="91"/><line style="stroke: #A80036; stroke-width: 1.5;" x1="1227.5" x2="1340.5" y1="99" y2="99"/><!--MD5=[4e062791541917c0b29d6d97b414b09a]
class TestAnalyzer--><rect fill="#FEFECE" filter="url(#f18pkw0mpw3vhj)" height="48" id="TestAnalyzer" style="stroke: #A80036; stroke-width: 1.5;" width="110" x="1229" y="167"/><ellipse cx="1244" cy="183" fill="#ADD1B2" rx="11" ry="11" style="stroke: #A80036; stroke-width: 1.0;"/><path d="M1246.9688,188.6406 Q1246.3906,188.9375 1245.75,189.0781 Q1245.1094,189.2344 1244.4063,189.2344 Q1241.9063,189.2344 1240.5781,187.5938 Q1239.2656,185.9375 1239.2656,182.8125 Q1239.2656,179.6875 1240.5781,178.0313 Q1241.9063,176.375 1244.4063,176.375 Q1245.1094,176.375 1245.75,176.5313 Q1246.4063,176.6875 1246.9688,176.9844 L1246.9688,179.7031 Q1246.3438,179.125 1245.75,178.8594 Q1245.1563,178.5781 1244.5313,178.5781 Q1243.1875,178.5781 1242.5,179.6563 Q1241.8125,180.7188 1241.8125,182.8125 Q1241.8125,184.9063 1242.5,185.9844 Q1243.1875,187.0469 1244.5313,187.0469 Q1245.1563,187.0469 1245.75,186.7813 Q1246.3438,186.5 1246.9688,185.9219 L1246.9688,188.6406 Z "/><text fill="#000000" font-family="sans-serif" font-size="12" lengthAdjust="spacingAndGlyphs" textLength="78" x="1258" y="187.1543">TestAnalyzer</text><line style="stroke: #A80036; stroke-width: 1.5;" x1="1230" x2="1338" y1="199" y2="199"/><line style="stroke: #A80036; stroke-width: 1.5;" x1="1230" x2="1338" y1="207" y2="207"/><!--MD5=[65580d6379a7eda5ed87bbc34a30f5ab]
class TestAnalysisResult--><rect fill="#FEFECE" filter="url(#f18pkw0mpw3vhj)" height="48" id="TestAnalysisResult" style="stroke: #A80036; stroke-width: 1.5;" width="148" x="1210" y="275"/><ellipse cx="1225" cy="291" fill="#ADD1B2" rx="11" ry="11" style="stroke: #A80036; stroke-width: 1.0;"/><path d="M1227.9688,296.6406 Q1227.3906,296.9375 1226.75,297.0781 Q1226.1094,297.2344 1225.4063,297.2344 Q1222.9063,297.2344 1221.5781,295.5938 Q1220.2656,293.9375 1220.2656,290.8125 Q1220.2656,287.6875 1221.5781,286.0313 Q1222.9063,284.375 1225.4063,284.375 Q1226.1094,284.375 1226.75,284.5313 Q1227.4063,284.6875 1227.9688,284.9844 L1227.9688,287.7031 Q1227.3438,287.125 1226.75,286.8594 Q1226.1563,286.5781 1225.5313,286.5781 Q1224.1875,286.5781 1223.5,287.6563 Q1222.8125,288.7188 1222.8125,290.8125 Q1222.8125,292.9063 1223.5,293.9844 Q1224.1875,295.0469 1225.5313,295.0469 Q1226.1563,295.0469 1226.75,294.7813 Q1227.3438,294.5 1227.9688,293.9219 L1227.9688,296.6406 Z "/><text fill="#000000" font-family="sans-serif" font-size="12" lengthAdjust="spacingAndGlyphs" textLength="116" x="1239" y="295.1543">TestAnalysisResult</text><line style="stroke: #A80036; stroke-width: 1.5;" x1="1211" x2="1357" y1="307" y2="307"/><line style="stroke: #A80036; stroke-width: 1.5;" x1="1211" x2="1357" y1="315" y2="315"/><!--MD5=[ef52aae1b6dbc96adedb6bea150debfd]
class CategoryAnalysisResult--><rect fill="#FEFECE" filter="url(#f18pkw0mpw3vhj)" height="48" id="CategoryAnalysisResult" style="stroke: #A80036; stroke-width: 1.5;" width="177" x="1092.5" y="398"/><ellipse cx="1107.5" cy="414" fill="#ADD1B2" rx="11" ry="11" style="stroke: #A80036; stroke-width: 1.0;"/><path d="M1110.4688,419.6406 Q1109.8906,419.9375 1109.25,420.0781 Q1108.6094,420.2344 1107.9063,420.2344 Q1105.4063,420.2344 1104.0781,418.5938 Q1102.7656,416.9375 1102.7656,413.8125 Q1102.7656,410.6875 1104.0781,409.0313 Q1105.4063,407.375 1107.9063,407.375 Q1108.6094,407.375 1109.25,407.5313 Q1109.9063,407.6875 1110.4688,407.9844 L1110.4688,410.7031 Q1109.8438,410.125 1109.25,409.8594 Q1108.6563,409.5781 1108.0313,409.5781 Q1106.6875,409.5781 1106,410.6563 Q1105.3125,411.7188 1105.3125,413.8125 Q1105.3125,415.9063 1106,416.9844 Q1106.6875,418.0469 1108.0313,418.0469 Q1108.6563,418.0469 1109.25,417.7813 Q1109.8438,417.5 1110.4688,416.9219 L1110.4688,419.6406 Z "/><text fill="#000000" font-family="sans-serif" font-size="12" lengthAdjust="spacingAndGlyphs" textLength="145" x="1121.5" y="418.1543">CategoryAnalysisResult</text><line style="stroke: #A80036; stroke-width: 1.5;" x1="1093.5" x2="1268.5" y1="430" y2="430"/><line style="stroke: #A80036; stroke-width: 1.5;" x1="1093.5" x2="1268.5" y1="438" y2="438"/><!--MD5=[fc8a49524b56acccd789ad205c1a0e4a]
class PriorityAnalysisResult--><rect fill="#FEFECE" filter="url(#f18pkw0mpw3vhj)" height="48" id="PriorityAnalysisResult" style="stroke: #A80036; stroke-width: 1.5;" width="164" x="1305" y="398"/><ellipse cx="1320" cy="414" fill="#ADD1B2" rx="11" ry="11" style="stroke: #A80036; stroke-width: 1.0;"/><path d="M1322.9688,419.6406 Q1322.3906,419.9375 1321.75,420.0781 Q1321.1094,420.2344 1320.4063,420.2344 Q1317.9063,420.2344 1316.5781,418.5938 Q1315.2656,416.9375 1315.2656,413.8125 Q1315.2656,410.6875 1316.5781,409.0313 Q1317.9063,407.375 1320.4063,407.375 Q1321.1094,407.375 1321.75,407.5313 Q1322.4063,407.6875 1322.9688,407.9844 L1322.9688,410.7031 Q1322.3438,410.125 1321.75,409.8594 Q1321.1563,409.5781 1320.5313,409.5781 Q1319.1875,409.5781 1318.5,410.6563 Q1317.8125,411.7188 1317.8125,413.8125 Q1317.8125,415.9063 1318.5,416.9844 Q1319.1875,418.0469 1320.5313,418.0469 Q1321.1563,418.0469 1321.75,417.7813 Q1322.3438,417.5 1322.9688,416.9219 L1322.9688,419.6406 Z "/><text fill="#000000" font-family="sans-serif" font-size="12" lengthAdjust="spacingAndGlyphs" textLength="132" x="1334" y="418.1543">PriorityAnalysisResult</text><line style="stroke: #A80036; stroke-width: 1.5;" x1="1306" x2="1468" y1="430" y2="430"/><line style="stroke: #A80036; stroke-width: 1.5;" x1="1306" x2="1468" y1="438" y2="438"/><!--MD5=[d9d7fa21979a31d8c6420adaa3043e8f]
class IReportSection--><rect fill="#FEFECE" filter="url(#f18pkw0mpw3vhj)" height="48" id="IReportSection" style="stroke: #A80036; stroke-width: 1.5;" width="125" x="405.5" y="869"/><ellipse cx="420.5" cy="885" fill="#B4A7E5" rx="11" ry="11" style="stroke: #A80036; stroke-width: 1.0;"/><path d="M416.4219,880.7656 L416.4219,878.6094 L423.8125,878.6094 L423.8125,880.7656 L421.3438,880.7656 L421.3438,888.8438 L423.8125,888.8438 L423.8125,891 L416.4219,891 L416.4219,888.8438 L418.8906,888.8438 L418.8906,880.7656 L416.4219,880.7656 Z "/><text fill="#000000" font-family="sans-serif" font-size="12" font-style="italic" lengthAdjust="spacingAndGlyphs" textLength="93" x="434.5" y="889.1543">IReportSection</text><line style="stroke: #A80036; stroke-width: 1.5;" x1="406.5" x2="529.5" y1="901" y2="901"/><line style="stroke: #A80036; stroke-width: 1.5;" x1="406.5" x2="529.5" y1="909" y2="909"/><!--MD5=[a8ecd5bbed1e0a2ae120b99a1ff8f7f5]
class SummarySection--><rect fill="#FEFECE" filter="url(#f18pkw0mpw3vhj)" height="48" id="SummarySection" style="stroke: #A80036; stroke-width: 1.5;" width="136" x="140" y="977"/><ellipse cx="155" cy="993" fill="#ADD1B2" rx="11" ry="11" style="stroke: #A80036; stroke-width: 1.0;"/><path d="M157.9688,998.6406 Q157.3906,998.9375 156.75,999.0781 Q156.1094,999.2344 155.4063,999.2344 Q152.9063,999.2344 151.5781,997.5938 Q150.2656,995.9375 150.2656,992.8125 Q150.2656,989.6875 151.5781,988.0313 Q152.9063,986.375 155.4063,986.375 Q156.1094,986.375 156.75,986.5313 Q157.4063,986.6875 157.9688,986.9844 L157.9688,989.7031 Q157.3438,989.125 156.75,988.8594 Q156.1563,988.5781 155.5313,988.5781 Q154.1875,988.5781 153.5,989.6563 Q152.8125,990.7188 152.8125,992.8125 Q152.8125,994.9063 153.5,995.9844 Q154.1875,997.0469 155.5313,997.0469 Q156.1563,997.0469 156.75,996.7813 Q157.3438,996.5 157.9688,995.9219 L157.9688,998.6406 Z "/><text fill="#000000" font-family="sans-serif" font-size="12" lengthAdjust="spacingAndGlyphs" textLength="104" x="169" y="997.1543">SummarySection</text><line style="stroke: #A80036; stroke-width: 1.5;" x1="141" x2="275" y1="1009" y2="1009"/><line style="stroke: #A80036; stroke-width: 1.5;" x1="141" x2="275" y1="1017" y2="1017"/><!--MD5=[128cc5e24a32486efe4c20546362b100]
class CategorySection--><rect fill="#FEFECE" filter="url(#f18pkw0mpw3vhj)" height="48" id="CategorySection" style="stroke: #A80036; stroke-width: 1.5;" width="135" x="311.5" y="977"/><ellipse cx="326.5" cy="993" fill="#ADD1B2" rx="11" ry="11" style="stroke: #A80036; stroke-width: 1.0;"/><path d="M329.4688,998.6406 Q328.8906,998.9375 328.25,999.0781 Q327.6094,999.2344 326.9063,999.2344 Q324.4063,999.2344 323.0781,997.5938 Q321.7656,995.9375 321.7656,992.8125 Q321.7656,989.6875 323.0781,988.0313 Q324.4063,986.375 326.9063,986.375 Q327.6094,986.375 328.25,986.5313 Q328.9063,986.6875 329.4688,986.9844 L329.4688,989.7031 Q328.8438,989.125 328.25,988.8594 Q327.6563,988.5781 327.0313,988.5781 Q325.6875,988.5781 325,989.6563 Q324.3125,990.7188 324.3125,992.8125 Q324.3125,994.9063 325,995.9844 Q325.6875,997.0469 327.0313,997.0469 Q327.6563,997.0469 328.25,996.7813 Q328.8438,996.5 329.4688,995.9219 L329.4688,998.6406 Z "/><text fill="#000000" font-family="sans-serif" font-size="12" lengthAdjust="spacingAndGlyphs" textLength="103" x="340.5" y="997.1543">CategorySection</text><line style="stroke: #A80036; stroke-width: 1.5;" x1="312.5" x2="445.5" y1="1009" y2="1009"/><line style="stroke: #A80036; stroke-width: 1.5;" x1="312.5" x2="445.5" y1="1017" y2="1017"/><!--MD5=[93d324526210dd0491b5d85d57ed0fd5]
class FailedTestsSection--><rect fill="#FEFECE" filter="url(#f18pkw0mpw3vhj)" height="48" id="FailedTestsSection" style="stroke: #A80036; stroke-width: 1.5;" width="150" x="482" y="977"/><ellipse cx="497" cy="993" fill="#ADD1B2" rx="11" ry="11" style="stroke: #A80036; stroke-width: 1.0;"/><path d="M499.9688,998.6406 Q499.3906,998.9375 498.75,999.0781 Q498.1094,999.2344 497.4063,999.2344 Q494.9063,999.2344 493.5781,997.5938 Q492.2656,995.9375 492.2656,992.8125 Q492.2656,989.6875 493.5781,988.0313 Q494.9063,986.375 497.4063,986.375 Q498.1094,986.375 498.75,986.5313 Q499.4063,986.6875 499.9688,986.9844 L499.9688,989.7031 Q499.3438,989.125 498.75,988.8594 Q498.1563,988.5781 497.5313,988.5781 Q496.1875,988.5781 495.5,989.6563 Q494.8125,990.7188 494.8125,992.8125 Q494.8125,994.9063 495.5,995.9844 Q496.1875,997.0469 497.5313,997.0469 Q498.1563,997.0469 498.75,996.7813 Q499.3438,996.5 499.9688,995.9219 L499.9688,998.6406 Z "/><text fill="#000000" font-family="sans-serif" font-size="12" lengthAdjust="spacingAndGlyphs" textLength="118" x="511" y="997.1543">FailedTestsSection</text><line style="stroke: #A80036; stroke-width: 1.5;" x1="483" x2="631" y1="1009" y2="1009"/><line style="stroke: #A80036; stroke-width: 1.5;" x1="483" x2="631" y1="1017" y2="1017"/><!--MD5=[f907f609b19cb9ac6ab0ceb0851d6906]
class PrioritySection--><rect fill="#FEFECE" filter="url(#f18pkw0mpw3vhj)" height="48" id="PrioritySection" style="stroke: #A80036; stroke-width: 1.5;" width="122" x="667" y="977"/><ellipse cx="682" cy="993" fill="#ADD1B2" rx="11" ry="11" style="stroke: #A80036; stroke-width: 1.0;"/><path d="M684.9688,998.6406 Q684.3906,998.9375 683.75,999.0781 Q683.1094,999.2344 682.4063,999.2344 Q679.9063,999.2344 678.5781,997.5938 Q677.2656,995.9375 677.2656,992.8125 Q677.2656,989.6875 678.5781,988.0313 Q679.9063,986.375 682.4063,986.375 Q683.1094,986.375 683.75,986.5313 Q684.4063,986.6875 684.9688,986.9844 L684.9688,989.7031 Q684.3438,989.125 683.75,988.8594 Q683.1563,988.5781 682.5313,988.5781 Q681.1875,988.5781 680.5,989.6563 Q679.8125,990.7188 679.8125,992.8125 Q679.8125,994.9063 680.5,995.9844 Q681.1875,997.0469 682.5313,997.0469 Q683.1563,997.0469 683.75,996.7813 Q684.3438,996.5 684.9688,995.9219 L684.9688,998.6406 Z "/><text fill="#000000" font-family="sans-serif" font-size="12" lengthAdjust="spacingAndGlyphs" textLength="90" x="696" y="997.1543">PrioritySection</text><line style="stroke: #A80036; stroke-width: 1.5;" x1="668" x2="788" y1="1009" y2="1009"/><line style="stroke: #A80036; stroke-width: 1.5;" x1="668" x2="788" y1="1017" y2="1017"/><!--MD5=[04e192eb3161d6778a30a8dfa7458462]
class IReportGenerator--><rect fill="#FEFECE" filter="url(#f18pkw0mpw3vhj)" height="48" id="IReportGenerator" style="stroke: #A80036; stroke-width: 1.5;" width="142" x="380" y="398"/><ellipse cx="395" cy="414" fill="#B4A7E5" rx="11" ry="11" style="stroke: #A80036; stroke-width: 1.0;"/><path d="M390.9219,409.7656 L390.9219,407.6094 L398.3125,407.6094 L398.3125,409.7656 L395.8438,409.7656 L395.8438,417.8438 L398.3125,417.8438 L398.3125,420 L390.9219,420 L390.9219,417.8438 L393.3906,417.8438 L393.3906,409.7656 L390.9219,409.7656 Z "/><text fill="#000000" font-family="sans-serif" font-size="12" font-style="italic" lengthAdjust="spacingAndGlyphs" textLength="110" x="409" y="418.1543">IReportGenerator</text><line style="stroke: #A80036; stroke-width: 1.5;" x1="381" x2="521" y1="430" y2="430"/><line style="stroke: #A80036; stroke-width: 1.5;" x1="381" x2="521" y1="438" y2="438"/><!--MD5=[5f3fb3e6c2cca89d0ca2d1a24a275b42]
class BaseReportGenerator--><rect fill="#FEFECE" filter="url(#f18pkw0mpw3vhj)" height="48" id="BaseReportGenerator" style="stroke: #A80036; stroke-width: 1.5;" width="168" x="379" y="506"/><ellipse cx="394" cy="522" fill="#A9DCDF" rx="11" ry="11" style="stroke: #A80036; stroke-width: 1.0;"/><path d="M394.1094,517.3438 L392.9531,522.4219 L395.2813,522.4219 L394.1094,517.3438 Z M392.625,515.1094 L395.6094,515.1094 L398.9688,527.5 L396.5156,527.5 L395.75,524.4375 L392.4688,524.4375 L391.7188,527.5 L389.2813,527.5 L392.625,515.1094 Z "/><text fill="#000000" font-family="sans-serif" font-size="12" font-style="italic" lengthAdjust="spacingAndGlyphs" textLength="136" x="408" y="526.1543">BaseReportGenerator</text><line style="stroke: #A80036; stroke-width: 1.5;" x1="380" x2="546" y1="538" y2="538"/><line style="stroke: #A80036; stroke-width: 1.5;" x1="380" x2="546" y1="546" y2="546"/><!--MD5=[a0e425846df3cce5c847498b51d41b15]
class ConsoleReportGenerator--><rect fill="#FEFECE" filter="url(#f18pkw0mpw3vhj)" height="48" id="ConsoleReportGenerator" style="stroke: #A80036; stroke-width: 1.5;" width="188" x="374" y="614"/><ellipse cx="389" cy="630" fill="#ADD1B2" rx="11" ry="11" style="stroke: #A80036; stroke-width: 1.0;"/><path d="M391.9688,635.6406 Q391.3906,635.9375 390.75,636.0781 Q390.1094,636.2344 389.4063,636.2344 Q386.9063,636.2344 385.5781,634.5938 Q384.2656,632.9375 384.2656,629.8125 Q384.2656,626.6875 385.5781,625.0313 Q386.9063,623.375 389.4063,623.375 Q390.1094,623.375 390.75,623.5313 Q391.4063,623.6875 391.9688,623.9844 L391.9688,626.7031 Q391.3438,626.125 390.75,625.8594 Q390.1563,625.5781 389.5313,625.5781 Q388.1875,625.5781 387.5,626.6563 Q386.8125,627.7188 386.8125,629.8125 Q386.8125,631.9063 387.5,632.9844 Q388.1875,634.0469 389.5313,634.0469 Q390.1563,634.0469 390.75,633.7813 Q391.3438,633.5 391.9688,632.9219 L391.9688,635.6406 Z "/><text fill="#000000" font-family="sans-serif" font-size="12" lengthAdjust="spacingAndGlyphs" textLength="156" x="403" y="634.1543">ConsoleReportGenerator</text><line style="stroke: #A80036; stroke-width: 1.5;" x1="375" x2="561" y1="646" y2="646"/><line style="stroke: #A80036; stroke-width: 1.5;" x1="375" x2="561" y1="654" y2="654"/><!--MD5=[3c2e990b18cf46e8dc963ead328d8f2c]
class ReportBuilder--><rect fill="#FEFECE" filter="url(#f18pkw0mpw3vhj)" height="48" id="ReportBuilder" style="stroke: #A80036; stroke-width: 1.5;" width="117" x="409.5" y="722"/><ellipse cx="424.5" cy="738" fill="#ADD1B2" rx="11" ry="11" style="stroke: #A80036; stroke-width: 1.0;"/><path d="M427.4688,743.6406 Q426.8906,743.9375 426.25,744.0781 Q425.6094,744.2344 424.9063,744.2344 Q422.4063,744.2344 421.0781,742.5938 Q419.7656,740.9375 419.7656,737.8125 Q419.7656,734.6875 421.0781,733.0313 Q422.4063,731.375 424.9063,731.375 Q425.6094,731.375 426.25,731.5313 Q426.9063,731.6875 427.4688,731.9844 L427.4688,734.7031 Q426.8438,734.125 426.25,733.8594 Q425.6563,733.5781 425.0313,733.5781 Q423.6875,733.5781 423,734.6563 Q422.3125,735.7188 422.3125,737.8125 Q422.3125,739.9063 423,740.9844 Q423.6875,742.0469 425.0313,742.0469 Q425.6563,742.0469 426.25,741.7813 Q426.8438,741.5 427.4688,740.9219 L427.4688,743.6406 Z "/><text fill="#000000" font-family="sans-serif" font-size="12" lengthAdjust="spacingAndGlyphs" textLength="85" x="438.5" y="742.1543">ReportBuilder</text><line style="stroke: #A80036; stroke-width: 1.5;" x1="410.5" x2="525.5" y1="754" y2="754"/><line style="stroke: #A80036; stroke-width: 1.5;" x1="410.5" x2="525.5" y1="762" y2="762"/><!--MD5=[0bb72ce85f26d33bd5c6006aaf51c9a3]
class ITestReportFacade--><rect fill="#FEFECE" filter="url(#f18pkw0mpw3vhj)" height="48" id="ITestReportFacade" style="stroke: #A80036; stroke-width: 1.5;" width="150" x="182" y="167"/><ellipse cx="197" cy="183" fill="#B4A7E5" rx="11" ry="11" style="stroke: #A80036; stroke-width: 1.0;"/><path d="M192.9219,178.7656 L192.9219,176.6094 L200.3125,176.6094 L200.3125,178.7656 L197.8438,178.7656 L197.8438,186.8438 L200.3125,186.8438 L200.3125,189 L192.9219,189 L192.9219,186.8438 L195.3906,186.8438 L195.3906,178.7656 L192.9219,178.7656 Z "/><text fill="#000000" font-family="sans-serif" font-size="12" font-style="italic" lengthAdjust="spacingAndGlyphs" textLength="118" x="211" y="187.1543">ITestReportFacade</text><line style="stroke: #A80036; stroke-width: 1.5;" x1="183" x2="331" y1="199" y2="199"/><line style="stroke: #A80036; stroke-width: 1.5;" x1="183" x2="331" y1="207" y2="207"/><!--MD5=[2db1454b67067c993f7b6cfbe55c440c]
class TestReportFacade--><rect fill="#FEFECE" filter="url(#f18pkw0mpw3vhj)" height="48" id="TestReportFacade" style="stroke: #A80036; stroke-width: 1.5;" width="147" x="183.5" y="275"/><ellipse cx="198.5" cy="291" fill="#ADD1B2" rx="11" ry="11" style="stroke: #A80036; stroke-width: 1.0;"/><path d="M201.4688,296.6406 Q200.8906,296.9375 200.25,297.0781 Q199.6094,297.2344 198.9063,297.2344 Q196.4063,297.2344 195.0781,295.5938 Q193.7656,293.9375 193.7656,290.8125 Q193.7656,287.6875 195.0781,286.0313 Q196.4063,284.375 198.9063,284.375 Q199.6094,284.375 200.25,284.5313 Q200.9063,284.6875 201.4688,284.9844 L201.4688,287.7031 Q200.8438,287.125 200.25,286.8594 Q199.6563,286.5781 199.0313,286.5781 Q197.6875,286.5781 197,287.6563 Q196.3125,288.7188 196.3125,290.8125 Q196.3125,292.9063 197,293.9844 Q197.6875,295.0469 199.0313,295.0469 Q199.6563,295.0469 200.25,294.7813 Q200.8438,294.5 201.4688,293.9219 L201.4688,296.6406 Z "/><text fill="#000000" font-family="sans-serif" font-size="12" lengthAdjust="spacingAndGlyphs" textLength="115" x="212.5" y="295.1543">TestReportFacade</text><line style="stroke: #A80036; stroke-width: 1.5;" x1="184.5" x2="329.5" y1="307" y2="307"/><line style="stroke: #A80036; stroke-width: 1.5;" x1="184.5" x2="329.5" y1="315" y2="315"/><!--MD5=[b37c7e120f4ea822edabf4364aec1018]
class ReportGeneratorCli--><rect fill="#FEFECE" filter="url(#f18pkw0mpw3vhj)" height="48" id="ReportGeneratorCli" style="stroke: #A80036; stroke-width: 1.5;" width="152" x="181" y="59"/><ellipse cx="196" cy="75" fill="#ADD1B2" rx="11" ry="11" style="stroke: #A80036; stroke-width: 1.0;"/><path d="M198.9688,80.6406 Q198.3906,80.9375 197.75,81.0781 Q197.1094,81.2344 196.4063,81.2344 Q193.9063,81.2344 192.5781,79.5938 Q191.2656,77.9375 191.2656,74.8125 Q191.2656,71.6875 192.5781,70.0313 Q193.9063,68.375 196.4063,68.375 Q197.1094,68.375 197.75,68.5313 Q198.4063,68.6875 198.9688,68.9844 L198.9688,71.7031 Q198.3438,71.125 197.75,70.8594 Q197.1563,70.5781 196.5313,70.5781 Q195.1875,70.5781 194.5,71.6563 Q193.8125,72.7188 193.8125,74.8125 Q193.8125,76.9063 194.5,77.9844 Q195.1875,79.0469 196.5313,79.0469 Q197.1563,79.0469 197.75,78.7813 Q198.3438,78.5 198.9688,77.9219 L198.9688,80.6406 Z "/><text fill="#000000" font-family="sans-serif" font-size="12" lengthAdjust="spacingAndGlyphs" textLength="120" x="210" y="79.1543">ReportGeneratorCli</text><line style="stroke: #A80036; stroke-width: 1.5;" x1="182" x2="332" y1="91" y2="91"/><line style="stroke: #A80036; stroke-width: 1.5;" x1="182" x2="332" y1="99" y2="99"/><!--MD5=[33bd26297101e89a4f07c7c99c67b756]
reverse link ITestResultParser to CsvParser--><path d="M507.72,118.24 C505.07,120.13 502.48,122.05 500,124 C483.68,136.81 467.31,153.47 455.07,166.85 " fill="none" id="ITestResultParser&lt;-CsvParser" style="stroke: #A80036; stroke-width: 1.0;"/><polygon fill="none" points="503.91,112.36,524.45,107.17,511.63,124.04,503.91,112.36" style="stroke: #A80036; stroke-width: 1.0;"/><!--MD5=[85419caa3d0b113237995e0f86c52eb0]
reverse link ITestResultParser to JsonParser--><path d="M567,127.02 C567,140.58 567,155.04 567,166.68 " fill="none" id="ITestResultParser&lt;-JsonParser" style="stroke: #A80036; stroke-width: 1.0;"/><polygon fill="none" points="560,127,567,107,574,127,560,127" style="stroke: #A80036; stroke-width: 1.0;"/><!--MD5=[34a13c5fe3bf519bf128945310618d78]
reverse link ITestResultParser to XmlParser--><path d="M626.28,118.24 C628.93,120.13 631.52,122.05 634,124 C650.32,136.81 666.69,153.47 678.93,166.85 " fill="none" id="ITestResultParser&lt;-XmlParser" style="stroke: #A80036; stroke-width: 1.0;"/><polygon fill="none" points="622.37,124.04,609.55,107.17,630.09,112.36,622.37,124.04" style="stroke: #A80036; stroke-width: 1.0;"/><!--MD5=[f1fd03e6ce89ea1f2ead857a6d31e360]
reverse link ITestResult to TestResult--><path d="M987,127.02 C987,140.58 987,155.04 987,166.68 " fill="none" id="ITestResult&lt;-TestResult" style="stroke: #A80036; stroke-width: 1.0;"/><polygon fill="none" points="980,127,987,107,994,127,980,127" style="stroke: #A80036; stroke-width: 1.0;"/><!--MD5=[ad0fdf26df3d8b4b74a2fedd854e11cd]
reverse link IFileReader to FileReader--><path d="M89,466.02 C89,479.58 89,494.04 89,505.68 " fill="none" id="IFileReader&lt;-FileReader" style="stroke: #A80036; stroke-width: 1.0;"/><polygon fill="none" points="82,466,89,446,96,466,82,466" style="stroke: #A80036; stroke-width: 1.0;"/><!--MD5=[30384646e153d473e11fbb174f412877]
reverse link IParserFactory to ParserFactory--><path d="M257,466.02 C257,479.58 257,494.04 257,505.68 " fill="none" id="IParserFactory&lt;-ParserFactory" style="stroke: #A80036; stroke-width: 1.0;"/><polygon fill="none" points="250,466,257,446,264,466,250,466" style="stroke: #A80036; stroke-width: 1.0;"/><!--MD5=[22b07bb355e9d219f0a1e5f6475c50c2]
reverse link ITestAnalyzer to TestAnalyzer--><path d="M1284,127.02 C1284,140.58 1284,155.04 1284,166.68 " fill="none" id="ITestAnalyzer&lt;-TestAnalyzer" style="stroke: #A80036; stroke-width: 1.0;"/><polygon fill="none" points="1277,127,1284,107,1291,127,1277,127" style="stroke: #A80036; stroke-width: 1.0;"/><!--MD5=[4ea266f5c82c107451e219eac36d2652]
link TestAnalyzer to TestAnalysisResult--><path d="M1284,215 C1284,231 1284,252.45 1284,269.53 " fill="none" id="TestAnalyzer-&gt;TestAnalysisResult" style="stroke: #A80036; stroke-width: 1.0;"/><polygon fill="#A80036" points="1284,274.68,1288,265.68,1284,269.68,1280,265.68,1284,274.68" style="stroke: #A80036; stroke-width: 1.0;"/><!--MD5=[f24c2b2d5b2f5e9ea07f3f159d1a4c62]
link TestAnalysisResult to CategoryAnalysisResult--><path d="M1264.38,323.04 C1247.24,343.18 1222.32,372.45 1204.2,393.75 " fill="none" id="TestAnalysisResult-&gt;CategoryAnalysisResult" style="stroke: #A80036; stroke-width: 1.0;"/><polygon fill="#A80036" points="1200.89,397.63,1209.7671,393.3641,1204.1287,393.8207,1203.6721,388.1823,1200.89,397.63" style="stroke: #A80036; stroke-width: 1.0;"/><!--MD5=[e26e69d871a9347d664611988621e6de]
link TestAnalysisResult to PriorityAnalysisResult--><path d="M1303.62,323.04 C1320.76,343.18 1345.68,372.45 1363.8,393.75 " fill="none" id="TestAnalysisResult-&gt;PriorityAnalysisResult" style="stroke: #A80036; stroke-width: 1.0;"/><polygon fill="#A80036" points="1367.11,397.63,1364.3279,388.1823,1363.8713,393.8207,1358.2329,393.3641,1367.11,397.63" style="stroke: #A80036; stroke-width: 1.0;"/><!--MD5=[913882056207925511dff4a1d8f0eafc]
reverse link IReportSection to SummarySection--><path d="M392.92,924.61 C352.07,941.26 302.35,961.54 264.75,976.86 " fill="none" id="IReportSection&lt;-SummarySection" style="stroke: #A80036; stroke-width: 1.0;"/><polygon fill="none" points="390.42,918.07,411.58,917,395.71,931.03,390.42,918.07" style="stroke: #A80036; stroke-width: 1.0;"/><!--MD5=[ae4822d8602b5fb4c99136d4b73cbb51]
reverse link IReportSection to CategorySection--><path d="M435.5,932.7 C423.12,947.45 409.4,963.79 398.58,976.68 " fill="none" id="IReportSection&lt;-CategorySection" style="stroke: #A80036; stroke-width: 1.0;"/><polygon fill="none" points="430.47,927.82,448.69,917,441.19,936.82,430.47,927.82" style="stroke: #A80036; stroke-width: 1.0;"/><!--MD5=[30f93ce0b91f03785a67170b30018c99]
reverse link IReportSection to FailedTestsSection--><path d="M500.5,932.7 C512.88,947.45 526.6,963.79 537.42,976.68 " fill="none" id="IReportSection&lt;-FailedTestsSection" style="stroke: #A80036; stroke-width: 1.0;"/><polygon fill="none" points="494.81,936.82,487.31,917,505.53,927.82,494.81,936.82" style="stroke: #A80036; stroke-width: 1.0;"/><!--MD5=[074a74101e19b4065853adc131b84bab]
reverse link IReportSection to PrioritySection--><path d="M543.08,924.61 C583.93,941.26 633.65,961.54 671.25,976.86 " fill="none" id="IReportSection&lt;-PrioritySection" style="stroke: #A80036; stroke-width: 1.0;"/><polygon fill="none" points="540.29,931.03,524.42,917,545.58,918.07,540.29,931.03" style="stroke: #A80036; stroke-width: 1.0;"/><!--MD5=[aa46f972d3913fdeab107cf1c0decb61]
reverse link IReportGenerator to BaseReportGenerator--><path d="M455.87,466.02 C457.41,479.58 459.04,494.04 460.36,505.68 " fill="none" id="IReportGenerator&lt;-BaseReportGenerator" style="stroke: #A80036; stroke-width: 1.0;"/><polygon fill="none" points="448.9,466.66,453.6,446,462.81,465.09,448.9,466.66" style="stroke: #A80036; stroke-width: 1.0;"/><!--MD5=[d7f8db648990d6db612786c4edd9609e]
reverse link BaseReportGenerator to ConsoleReportGenerator--><path d="M465.03,574.02 C465.67,587.58 466.35,602.04 466.9,613.68 " fill="none" id="BaseReportGenerator&lt;-ConsoleReportGenerator" style="stroke: #A80036; stroke-width: 1.0;"/><polygon fill="none" points="458.04,574.31,464.08,554,472.02,573.65,458.04,574.31" style="stroke: #A80036; stroke-width: 1.0;"/><!--MD5=[bf162df2cb5e8a45b1496f74d142fe2b]
link ConsoleReportGenerator to ReportBuilder--><path d="M468,662 C468,678 468,699.45 468,716.53 " fill="none" id="ConsoleReportGenerator-&gt;ReportBuilder" style="stroke: #A80036; stroke-width: 1.0;"/><polygon fill="#A80036" points="468,721.68,472,712.68,468,716.68,464,712.68,468,721.68" style="stroke: #A80036; stroke-width: 1.0;"/><!--MD5=[765059cf4b13db3154384c5b8c70e8e5]
link ReportBuilder to IReportSection--><path d="M468,770.3 C468,795.66 468,836.25 468,863.5 " fill="none" id="ReportBuilder-&gt;IReportSection" style="stroke: #A80036; stroke-width: 1.0;"/><polygon fill="#A80036" points="468,868.76,472,859.76,468,863.76,464,859.76,468,868.76" style="stroke: #A80036; stroke-width: 1.0;"/><!--MD5=[40c0a5d21b28d27e06f2c0a38bd7859d]
reverse link ITestReportFacade to TestReportFacade--><path d="M257,235.02 C257,248.58 257,263.04 257,274.68 " fill="none" id="ITestReportFacade&lt;-TestReportFacade" style="stroke: #A80036; stroke-width: 1.0;"/><polygon fill="none" points="250,235,257,215,264,235,250,235" style="stroke: #A80036; stroke-width: 1.0;"/><!--MD5=[65933572b69e55c97c4e3554fdc7b2f9]
link TestReportFacade to IFileReader--><path d="M224.37,323.23 C210.65,333.02 194.53,344.54 180,355 C161.89,368.03 141.81,382.59 125.13,394.7 " fill="none" id="TestReportFacade-&gt;IFileReader" style="stroke: #A80036; stroke-width: 1.0;"/><polygon fill="#A80036" points="120.97,397.73,130.6039,395.6835,125.0174,394.7942,125.9067,389.2077,120.97,397.73" style="stroke: #A80036; stroke-width: 1.0;"/><!--MD5=[93f244ed6a19edfebadc4266f21fdf35]
link TestReportFacade to IParserFactory--><path d="M257,323.04 C257,342.77 257,371.24 257,392.41 " fill="none" id="TestReportFacade-&gt;IParserFactory" style="stroke: #A80036; stroke-width: 1.0;"/><polygon fill="#A80036" points="257,397.63,261,388.63,257,392.63,253,388.63,257,397.63" style="stroke: #A80036; stroke-width: 1.0;"/><!--MD5=[64cbb8381736e71916bf6bb0ca235705]
link TestReportFacade to IReportGenerator--><path d="M293.95,323.04 C326.88,343.58 375.03,373.62 409.33,395.01 " fill="none" id="TestReportFacade-&gt;IReportGenerator" style="stroke: #A80036; stroke-width: 1.0;"/><polygon fill="#A80036" points="413.86,397.84,408.348,389.678,409.62,395.19,404.108,396.462,413.86,397.84" style="stroke: #A80036; stroke-width: 1.0;"/><!--MD5=[dd293982f7a5498c11ec88a70f082ca8]
link ReportGeneratorCli to ITestReportFacade--><path d="M257,107 C257,123 257,144.45 257,161.53 " fill="none" id="ReportGeneratorCli-&gt;ITestReportFacade" style="stroke: #A80036; stroke-width: 1.0;"/><polygon fill="#A80036" points="257,166.68,261,157.68,257,161.68,253,157.68,257,166.68" style="stroke: #A80036; stroke-width: 1.0;"/><!--MD5=[6ad52eef134b2846d0f6411731c103aa]
@startuml
package Parsers {
  interface ITestResultParser
  class CsvParser
  class JsonParser
  class XmlParser
}

package Models {
  interface ITestResult
  class TestResult
  enum TestStatus
}

package Services {
  interface IFileReader
  class FileReader
}

package Factories {
  interface IParserFactory
  class ParserFactory
}

package Analysis {
  interface ITestAnalyzer
  class TestAnalyzer
  class TestAnalysisResult
  class CategoryAnalysisResult
  class PriorityAnalysisResult
}

package Decorators {
  interface IReportSection
  class SummarySection
  class CategorySection
  class FailedTestsSection
  class PrioritySection
}

package Reports {
  interface IReportGenerator
  abstract class BaseReportGenerator
  class ConsoleReportGenerator
  package Builders {
    class ReportBuilder
  }
}

package Facades {
  interface ITestReportFacade
  class TestReportFacade
}

class ReportGeneratorCli

ITestResultParser <|- - CsvParser
ITestResultParser <|- - JsonParser
ITestResultParser <|- - XmlParser

ITestResult <|- - TestResult

IFileReader <|- - FileReader

IParserFactory <|- - ParserFactory

ITestAnalyzer <|- - TestAnalyzer
TestAnalyzer - -> TestAnalysisResult
TestAnalysisResult - -> CategoryAnalysisResult
TestAnalysisResult - -> PriorityAnalysisResult

IReportSection <|- - SummarySection
IReportSection <|- - CategorySection
IReportSection <|- - FailedTestsSection
IReportSection <|- - PrioritySection

IReportGenerator <|- - BaseReportGenerator
BaseReportGenerator <|- - ConsoleReportGenerator
ConsoleReportGenerator - -> ReportBuilder
ReportBuilder - -> IReportSection

ITestReportFacade <|- - TestReportFacade
TestReportFacade - -> IFileReader
TestReportFacade - -> IParserFactory
TestReportFacade - -> IReportGenerator

ReportGeneratorCli - -> ITestReportFacade
@enduml

PlantUML version 1.2020.02(Sun Mar 01 06:22:07 AMT 2020)
(GPL source distribution)
Java Runtime: OpenJDK Runtime Environment
JVM: OpenJDK 64-Bit Server VM
Java Version: 21.0.7+6-LTS
Operating System: Linux
Default Encoding: UTF-8
Language: en
Country: null
--></g></svg>